HIERARCHY
ROOT Hips
{
	OFFSET 0.00000 0.00000 0.00000
	CHANNELS 6 Xposition Yposition Zposition Zrotation Yrotation Xrotation 
	JOINT LHipJoint
	{
		OFFSET 0 0 0
		CHANNELS 3 Zrotation Yrotation Xrotation
		JOINT LeftUpLeg
		{
			OFFSET 1.62067 -1.77917 0.70989
			CHANNELS 3 Zrotation Yrotation Xrotation
			JOINT LeftLeg
			{
				OFFSET 2.34532 -6.44371 0.00000
				CHANNELS 3 Zrotation Yrotation Xrotation
				JOINT LeftFoot
				{
					OFFSET 2.74224 -7.53425 0.00000
					CHANNELS 3 Zrotation Yrotation Xrotation
					JOINT LeftToeBase
					{
						OFFSET 0.17032 -0.46794 2.08086
						CHANNELS 3 Zrotation Yrotation Xrotation
						End Site
						{
							OFFSET 0.00000 -0.00000 1.07476
						}
					}
				}
			}
		}
	}
	JOINT RHipJoint
	{
		OFFSET 0 0 0
		CHANNELS 3 Zrotation Yrotation Xrotation
		JOINT RightUpLeg
		{
			OFFSET -1.55811 -1.77917 0.70989
			CHANNELS 3 Zrotation Yrotation Xrotation
			JOINT RightLeg
			{
				OFFSET -2.33243 -6.40830 0.00000
				CHANNELS 3 Zrotation Yrotation Xrotation
				JOINT RightFoot
				{
					OFFSET -2.78798 -7.65993 0.00000
					CHANNELS 3 Zrotation Yrotation Xrotation
					JOINT RightToeBase
					{
						OFFSET -0.22707 -0.62388 2.04059
						CHANNELS 3 Zrotation Yrotation Xrotation
						End Site
						{
							OFFSET -0.00000 -0.00000 1.07030
						}
					}
				}
			}
		}
	}
	JOINT LowerBack
	{
		OFFSET 0 0 0
		CHANNELS 3 Zrotation Yrotation Xrotation
		JOINT Spine
		{
			OFFSET 0.02203 1.91565 0.07161
			CHANNELS 3 Zrotation Yrotation Xrotation
			JOINT Spine1
			{
				OFFSET 0.01740 1.90525 0.11636
				CHANNELS 3 Zrotation Yrotation Xrotation
				JOINT Neck
				{
					OFFSET 0 0 0
					CHANNELS 3 Zrotation Yrotation Xrotation
					JOINT Neck1
					{
						OFFSET -0.10841 1.83566 0.05067
						CHANNELS 3 Zrotation Yrotation Xrotation
						JOINT Head
						{
							OFFSET 0.06601 1.74760 -0.50505
							CHANNELS 3 Zrotation Yrotation Xrotation
							End Site
							{
								OFFSET 0.03102 1.85215 -0.17697
							}
						}
					}
				}
				JOINT LeftShoulder
				{
					OFFSET 0 0 0
					CHANNELS 3 Zrotation Yrotation Xrotation
					JOINT LeftArm
					{
						OFFSET 2.87059 1.35470 0.16111
						CHANNELS 3 Zrotation Yrotation Xrotation
						JOINT LeftForeArm
						{
							OFFSET 5.43592 -0.00000 0.00000
							CHANNELS 3 Zrotation Yrotation Xrotation
							JOINT LeftHand
							{
								OFFSET 3.25460 -0.00000 0.00000
								CHANNELS 3 Zrotation Yrotation Xrotation
								JOINT LeftFingerBase
								{
									OFFSET 0 0 0
									CHANNELS 3 Zrotation Yrotation Xrotation
									JOINT LeftHandIndex1
									{
										OFFSET 0.49824 -0.00000 0.00000
										CHANNELS 3 Zrotation Yrotation Xrotation
										End Site
										{
											OFFSET 0.40170 -0.00000 0.00000
										}
									}
								}
								JOINT LThumb
								{
									OFFSET 0 0 0
									CHANNELS 3 Zrotation Yrotation Xrotation
									End Site
									{
										OFFSET 0.40783 -0.00000 0.40783
									}
								}
							}
						}
					}
				}
				JOINT RightShoulder
				{
					OFFSET 0 0 0
					CHANNELS 3 Zrotation Yrotation Xrotation
					JOINT RightArm
					{
						OFFSET -2.86643 1.23488 0.45957
						CHANNELS 3 Zrotation Yrotation Xrotation
						JOINT RightForeArm
						{
							OFFSET -5.33830 -0.00000 0.00000
							CHANNELS 3 Zrotation Yrotation Xrotation
							JOINT RightHand
							{
								OFFSET -3.23148 -0.00000 0.00000
								CHANNELS 3 Zrotation Yrotation Xrotation
								JOINT RightFingerBase
								{
									OFFSET 0 0 0
									CHANNELS 3 Zrotation Yrotation Xrotation
									JOINT RightHandIndex1
									{
										OFFSET -0.46364 -0.00000 0.00000
										CHANNELS 3 Zrotation Yrotation Xrotation
										End Site
										{
											OFFSET -0.37380 -0.00000 0.00000
										}
									}
								}
								JOINT RThumb
								{
									OFFSET 0 0 0
									CHANNELS 3 Zrotation Yrotation Xrotation
									End Site
									{
										OFFSET -0.37951 -0.00000 0.37951
									}
								}
							}
						}
					}
				}
			}
		}
	}
}
MOTION
Frames: 16
Frame Time: .0083333
3.823 17.6097 4.1604 0 0 0 0 0 0 -21 0 0 0 0 0 0 0 0 0 0 0 0 0 0 21 0 0 0 0 0 0 0 0 0 0 0 0 0 0 0 0 0 0 0 0 0 0 -16 0 0 21 0 0 11 0 0 0 -8 0 0 0 0 0 0 0 0 0 0 0 0 0 0 0 0 0 0 0 0 8 0 0 0 0 0 0 0 0 0 0 0 0 0 0 0 0 0
3.8230 17.6097 4.1604 -3.9947 -8.1927 21.6077 0.0000 0.0000 0.0000 -19.6914 -14.8227 -19.9094 1.1105 6.6952 18.8153 0.5324 7.6072 -18.6121 0.2551 3.2494 8.9740 0.0000 0.0000 0.0000 -1.4094 11.9805 -2.1787 -0.2175 -3.0024 8.2854 -0.9799 -14.3541 19.0215 -4.0315 12.2022 -36.4511 4.6066 -1.3705 -8.2651 4.5544 -1.7277 -13.5643 2.3478 -1.0787 -9.8901 14.4154 18.5753 -6.1762 3.5582 22.9590 14.3681 1.0139 12.0985 6.6065 0.0000 -0.0000 0.0000 38.2098 -3.9044 -30.1140 15.0330 -24.1920 -3.2394 -0.0000 0.0000 -35.5081 23.9562 -14.5807 -6.3822 -7.1250 0.0000 -0.0000 -2.4118 14.1014 1.7531 0.0000 -0.0000 0.0000 -13.8078 -20.1342 -24.4186 -138.5129 48.9267 -100.4470 0.0000 -0.0000 -60.2377 -5.0217 -44.8330 3.5451 7.1250 -0.0000 -0.0000 48.6473 -69.1712 -30.6409
3.8236 17.6107 4.1590 -4.0644 -8.1543 21.6548 0.0000 0.0000 0.0000 -19.5904 -14.8357 -19.9985 1.1184 6.7181 18.8829 0.5349 7.5549 -18.5937 0.2545 3.2462 8.9649 0.0000 0.0000 0.0000 -1.3160 11.9532 -2.1639 -0.2114 -2.9602 8.1679 -0.9887 -14.4074 19.1040 -4.0204 12.1875 -36.3985 4.6672 -1.3664 -8.2294 4.5696 -1.7168 -13.6171 2.3357 -1.0789 -9.9755 14.4748 18.5847 -6.1180 3.5598 22.9743 14.3546 1.0042 12.1086 6.6002 -0.0000 -0.0000 0.0000 38.1769 -4.0226 -30.3992 15.0085 -24.1580 -3.2294 -0.0000 0.0000 -35.3154 24.0875 -14.7318 -6.4858 -7.1250 0.0000 -0.0000 -2.3332 13.9220 1.7047 -0.0000 -0.0000 0.0000 -13.8194 -20.1067 -24.3117 -138.5303 48.9169 -100.4601 0.0000 -0.0000 -60.1870 -4.8678 -44.7184 3.4293 7.1250 -0.0000 -0.0000 48.5531 -69.0480 -30.4479
3.8242 17.6121 4.1582 -4.0849 -8.1363 21.6936 0.0000 0.0000 0.0000 -19.5548 -14.8550 -20.0578 1.1236 6.7332 18.9275 0.5327 7.5618 -18.5751 0.2352 3.1212 8.6164 0.0000 0.0000 0.0000 -1.2905 11.9082 -2.1018 -0.2014 -2.8898 7.9722 -1.0029 -14.4668 19.2288 -4.0420 12.2160 -36.5005 4.6884 -1.3527 -8.3550 4.5640 -1.7119 -13.5523 2.3086 -1.0779 -9.8279 14.4382 18.6039 -6.2387 3.5362 22.9874 14.3141 1.0118 12.1091 6.6050 -0.0000 -0.0000 0.0000 38.1936 -4.0716 -30.9482 14.9478 -24.0733 -3.2046 -0.0000 0.0000 -34.9437 23.9644 -14.6887 -6.4305 -7.1250 0.0000 -0.0000 -2.4135 13.9838 1.7604 -0.0000 -0.0000 0.0000 -13.7480 -20.1113 -24.4168 -138.5013 48.9331 -100.4383 0.0000 -0.0000 -60.2436 -5.0227 -44.5779 3.5299 7.1250 -0.0000 -0.0000 48.1246 -69.0087 -30.0962
3.8276 17.6095 4.1662 -4.0622 -8.1417 21.6377 0.0000 0.0000 0.0000 -19.6176 -14.9136 -19.9603 1.1286 6.7476 18.9699 0.5327 7.6602 -18.6613 0.2259 3.0595 8.4444 0.0000 0.0000 0.0000 -1.3286 11.8711 -1.9614 -0.1966 -2.8556 7.8770 -1.0073 -14.4820 19.2661 -4.0807 12.2670 -36.6830 4.7595 -1.3562 -8.5323 4.5536 -1.7343 -13.5229 2.2492 -1.0962 -9.6946 14.3760 18.6116 -5.9110 3.5425 23.0638 14.1780 0.9855 12.1427 6.5029 -0.0000 0.0000 0.0000 38.1382 -4.0647 -30.8275 14.9647 -24.0968 -3.2115 -0.0000 0.0000 -34.9812 24.2535 -14.6071 -6.4822 -7.1250 0.0000 -0.0000 -2.2122 14.0361 1.6108 -0.0000 0.0000 0.0000 -13.7920 -20.0417 -24.2954 -138.5187 48.9234 -100.4514 0.0000 -0.0000 -60.2191 -5.7255 -44.6022 4.0271 7.1250 -0.0000 -0.0000 47.5235 -69.2538 -29.9024
3.8302 17.6073 4.1697 -4.0810 -8.1708 21.5826 0.0000 0.0000 0.0000 -19.6389 -14.8951 -19.8848 1.1302 6.7522 18.9834 0.5370 7.6795 -18.7252 0.2379 3.1389 8.6656 0.0000 0.0000 0.0000 -1.3284 11.9000 -1.8926 -0.1974 -2.8610 7.8920 -1.0055 -14.4476 19.2421 -4.1009 12.2935 -36.7783 4.8973 -1.3765 -8.5626 4.5646 -1.7572 -13.7300 2.1975 -1.1240 -9.9269 14.4759 18.5288 -4.6373 3.4701 23.1782 13.8391 0.8177 12.1988 6.2146 0.0000 -0.0000 0.0000 38.0315 -4.0930 -29.7487 15.0655 -24.2373 -3.2528 -0.0000 0.0000 -35.5424 24.9054 -14.5216 -6.6405 -7.1250 0.0000 -0.0000 -1.7644 14.0472 1.2840 0.0000 -0.0000 0.0000 -14.0332 -19.8898 -23.6943 -138.6690 48.8390 -100.5646 0.0000 -0.0000 -60.1862 -6.1521 -44.6535 4.3322 7.1250 -0.0000 -0.0000 47.2319 -69.4269 -29.8602
3.8278 17.6082 4.1634 -4.1405 -8.2422 21.5801 0.0000 0.0000 0.0000 -19.5694 -14.8519 -19.9075 1.1306 6.7534 18.9868 0.5376 7.6937 -18.7450 0.2472 3.1995 8.8346 0.0000 0.0000 0.0000 -1.2761 12.0064 -1.9248 -0.1980 -2.8651 7.9033 -0.9972 -14.4739 19.1888 -4.0815 12.2681 -36.6872 4.8160 -1.2827 -8.5089 4.5277 -1.6414 -13.4197 2.1845 -1.0552 -9.5910 14.3956 18.6648 -6.1561 3.6127 23.0778 14.3144 1.0391 12.1566 6.5816 0.0000 -0.0000 0.0000 38.1977 -4.0260 -30.8264 14.9520 -24.0792 -3.2063 -0.0000 0.0000 -34.9989 25.2082 -14.5514 -6.7452 -7.1250 0.0000 -0.0000 -1.5615 13.9761 1.1386 0.0000 -0.0000 0.0000 -13.7383 -20.2642 -24.3090 -138.6794 48.8331 -100.5724 0.0000 -0.0000 -60.2247 -5.9629 -44.6746 4.2001 7.1250 -0.0000 -0.0000 47.4516 -69.3785 -29.9728
3.8262 17.6080 4.1601 -4.1278 -8.2927 21.6176 0.0000 0.0000 0.0000 -19.5615 -14.8853 -19.9501 1.1299 6.7515 18.9811 0.5341 7.7328 -18.7403 0.2522 3.2311 8.9229 0.0000 0.0000 0.0000 -1.3062 12.0589 -1.9933 -0.1997 -2.8777 7.9384 -0.9880 -14.4861 19.1236 -4.0304 12.2007 -36.4457 4.7276 -1.2461 -8.5505 4.5063 -1.6013 -13.2825 2.2002 -1.0257 -9.4034 14.3274 18.7377 -6.7391 3.6736 23.0715 14.4555 1.1302 12.1531 6.7054 -0.0000 0.0000 0.0000 38.2833 -4.0214 -31.5821 14.8389 -23.9213 -3.1603 -0.0000 0.0000 -34.3201 25.1535 -14.6265 -6.7623 -7.1250 0.0000 -0.0000 -1.6041 13.9013 1.1722 -0.0000 0.0000 0.0000 -13.5679 -20.3048 -24.7051 -138.5616 48.8994 -100.4836 0.0000 -0.0000 -60.2891 -5.6949 -44.7506 4.0160 7.1250 -0.0000 -0.0000 47.8570 -69.3393 -30.2300
3.8287 17.6078 4.1602 -4.0502 -8.2750 21.7074 0.0000 0.0000 0.0000 -19.6304 -14.9099 -20.0548 1.1282 6.7463 18.9659 0.5366 7.6659 -18.7089 0.2573 3.2635 9.0132 0.0000 0.0000 0.0000 -1.4171 12.0134 -2.1091 -0.2021 -2.8948 7.9860 -0.9888 -14.4556 19.1201 -3.9995 12.1598 -36.2996 4.6801 -1.2509 -8.6478 4.4777 -1.6149 -13.3022 2.1931 -1.0299 -9.3684 14.3285 18.7433 -6.6674 3.6477 23.0961 14.3701 1.1127 12.1611 6.6698 0.0000 -0.0000 0.0000 38.3055 -4.0286 -31.8006 14.7990 -23.8654 -3.1442 -0.0000 0.0000 -34.0821 24.9833 -14.6149 -6.7055 -7.1250 0.0000 -0.0000 -1.7185 13.9357 1.2546 0.0000 -0.0000 0.0000 -13.4890 -20.1784 -24.8314 -138.4248 48.9759 -100.3805 0.0000 -0.0000 -60.2478 -5.6904 -44.8306 4.0184 7.1250 -0.0000 -0.0000 48.0269 -69.3890 -30.4037
3.8304 17.6087 4.1598 -4.0300 -8.2611 21.7420 0.0000 0.0000 0.0000 -19.6461 -14.9210 -20.1062 1.1276 6.7446 18.9609 0.5367 7.6452 -18.6924 0.2530 3.2361 8.9368 0.0000 0.0000 0.0000 -1.4506 11.9911 -2.1488 -0.2007 -2.8845 7.9574 -0.9906 -14.4781 19.1405 -4.0598 12.2396 -36.5848 4.6843 -1.2396 -8.6754 4.4438 -1.6032 -13.3165 2.1541 -1.0266 -9.3701 14.4795 18.6834 -6.4036 3.4147 23.0798 14.1007 0.9878 12.1374 6.5836 0.0000 0.0000 0.0000 38.3526 -4.0556 -31.9520 14.7681 -23.8220 -3.1317 -0.0000 0.0000 -33.8974 24.6316 -14.7948 -6.6779 -7.1250 0.0000 -0.0000 -1.9696 13.7853 1.4444 0.0000 0.0000 0.0000 -13.4493 -20.2256 -24.8324 -138.4097 48.9844 -100.3692 0.0000 -0.0000 -60.2592 -5.9535 -44.8092 4.2033 7.1250 -0.0000 -0.0000 47.7393 -69.4620 -30.2652
3.8306 17.6086 4.1653 -4.0790 -8.3131 21.7008 0.0000 0.0000 0.0000 -19.6205 -14.9422 -20.0266 1.1287 6.7478 18.9702 0.5332 7.7600 -18.7547 0.2542 3.2441 8.9591 0.0000 0.0000 0.0000 -1.4130 12.0370 -2.0411 -0.1952 -2.8449 7.8473 -0.9916 -14.5162 19.1599 -4.1614 12.3722 -37.0616 4.7158 -1.2185 -8.6613 4.4553 -1.5751 -13.2942 2.1484 -1.0146 -9.3536 14.5651 18.6636 -6.3918 3.2832 23.0649 14.0667 0.9387 12.1235 6.5957 -0.0000 -0.0000 0.0000 38.3376 -3.9390 -31.6251 14.7988 -23.8651 -3.1441 -0.0000 0.0000 -34.0695 24.3084 -14.9713 -6.6557 -7.1250 0.0000 -0.0000 -2.2006 13.6355 1.6210 -0.0000 -0.0000 0.0000 -13.4676 -20.2882 -24.7309 -138.5025 48.9325 -100.4391 0.0000 -0.0000 -60.2675 -6.5013 -44.7763 4.5891 7.1250 -0.0000 -0.0000 47.1617 -69.6217 -29.9991
3.8310 17.6083 4.1687 -4.1163 -8.3404 21.7014 0.0000 0.0000 0.0000 -19.5936 -14.9321 -20.0086 1.1293 6.7495 18.9754 0.5368 7.7731 -18.8052 0.2690 3.3365 9.2170 0.0000 0.0000 0.0000 -1.3852 12.0517 -1.9695 -0.1896 -2.8046 7.7351 -0.9972 -14.5595 19.2149 -4.1711 12.3847 -37.1067 4.7310 -1.2166 -8.6291 4.4872 -1.5675 -13.3200 2.1772 -1.0108 -9.4023 14.6061 18.7290 -6.4969 3.3249 23.1227 14.2571 0.9775 12.1605 6.6779 0.0000 -0.0000 0.0000 38.2829 -3.7964 -31.0768 14.8749 -23.9715 -3.1749 -0.0000 0.0000 -34.5254 24.0879 -14.7452 -6.4917 -7.1250 0.0000 -0.0000 -2.3338 13.9075 1.7059 0.0000 -0.0000 0.0000 -13.5014 -20.2320 -24.6467 -138.5326 48.9156 -100.4618 0.0000 -0.0000 -60.2031 -6.6358 -44.8350 4.6892 7.1250 -0.0000 -0.0000 47.1593 -69.7042 -30.0777
3.8320 17.6089 4.1662 -4.1512 -8.2680 21.7270 0.0000 0.0000 0.0000 -19.5407 -14.8893 -20.0584 1.1279 6.7454 18.9634 0.5380 7.6866 -18.7431 0.2663 3.3198 9.1705 0.0000 0.0000 0.0000 -1.3200 11.9883 -1.9618 -0.1875 -2.7886 7.6907 -0.9982 -14.6028 19.2362 -4.1442 12.3498 -36.9810 4.7766 -1.2179 -8.5966 4.4873 -1.5657 -13.3513 2.1552 -1.0146 -9.4596 14.7590 18.7168 -6.3076 3.1417 23.1499 14.1274 0.8888 12.1649 6.6461 0.0000 -0.0000 0.0000 38.2856 -3.8067 -30.9377 14.8964 -24.0015 -3.1837 -0.0000 0.0000 -34.6050 23.9843 -14.5970 -6.3975 -7.1250 0.0000 -0.0000 -2.3939 14.0803 1.7411 0.0000 -0.0000 0.0000 -13.4838 -20.2178 -24.6970 -138.4387 48.9682 -100.3910 0.0000 -0.0000 -60.1027 -5.9959 -44.9337 4.2426 7.1250 -0.0000 -0.0000 47.9605 -69.5558 -30.5201
3.8327 17.6096 4.1647 -4.1212 -8.1961 21.7192 0.0000 0.0000 0.0000 -19.5685 -14.9094 -20.0418 1.1235 6.7328 18.9260 0.5292 7.7023 -18.6601 0.2547 3.2471 8.9676 0.0000 0.0000 0.0000 -1.3202 11.9168 -1.9735 -0.1902 -2.8085 7.7459 -0.9914 -14.6040 19.1859 -4.1256 12.3257 -36.8941 4.7576 -1.2275 -8.6452 4.4756 -1.5844 -13.3037 2.1483 -1.0218 -9.3756 14.7483 18.6992 -6.3706 3.0619 23.1290 14.0950 0.8692 12.1471 6.6526 0.0000 -0.0000 0.0000 38.2941 -3.7650 -31.0300 14.8985 -24.0045 -3.1845 -0.0000 0.0000 -34.5473 23.6159 -14.6355 -6.3040 -7.1250 0.0000 -0.0000 -2.6462 14.0838 1.9248 0.0000 -0.0000 0.0000 -13.4191 -20.2476 -24.8057 -138.3633 49.0103 -100.3341 0.0000 -0.0000 -59.9498 -5.5591 -44.9087 3.9308 7.1250 -0.0000 -0.0000 48.3108 -69.3957 -30.6186
3.8317 17.6094 4.1641 -4.0517 -8.1891 21.7318 0.0000 0.0000 0.0000 -19.6487 -14.9156 -20.0286 1.1182 6.7174 18.8809 0.5249 7.7149 -18.6239 0.2487 3.2087 8.8604 0.0000 0.0000 0.0000 -1.3912 11.9032 -2.0496 -0.1949 -2.8431 7.8422 -0.9890 -14.5936 19.1643 -4.0962 12.2874 -36.7563 4.6893 -1.2571 -8.7380 4.4729 -1.6284 -13.3404 2.1817 -1.0380 -9.3617 14.7384 18.6815 -5.9663 2.9886 23.1912 13.8867 0.8023 12.1699 6.5299 0.0000 -0.0000 0.0000 38.2712 -3.5867 -30.3050 15.0024 -24.1495 -3.2269 -0.0000 0.0000 -35.1065 23.5394 -14.5789 -6.2577 -7.1250 0.0000 -0.0000 -2.6944 14.1539 1.9559 0.0000 -0.0000 0.0000 -13.4629 -20.2236 -24.6842 -138.3853 48.9980 -100.3507 0.0000 -0.0000 -59.8947 -5.8289 -44.8235 4.1161 7.1250 -0.0000 -0.0000 47.8843 -69.4301 -30.3399
3.8308 17.6083 4.1636 -4.0568 -8.1986 21.7836 0.0000 0.0000 0.0000 -19.6429 -14.8847 -20.0504 1.1152 6.7087 18.8551 0.5270 7.6937 -18.6280 0.2357 3.1248 8.6263 0.0000 0.0000 0.0000 -1.3947 11.9274 -2.1403 -0.1987 -2.8704 7.9181 -0.9906 -14.5705 19.1693 -4.1039 12.2974 -36.7925 4.7493 -1.2764 -8.7927 4.4655 -1.6486 -13.6093 2.1550 -1.0588 -9.6470 14.9809 18.5097 -4.4070 2.6473 23.2643 13.2283 0.4945 12.1894 6.1396 -0.0000 0.0000 0.0000 38.2398 -3.6077 -29.0469 15.1332 -24.3314 -3.2806 -0.0000 0.0000 -35.7952 23.7598 -14.5966 -6.3305 -7.1250 0.0000 -0.0000 -2.5461 14.1082 1.8505 -0.0000 0.0000 0.0000 -13.6808 -20.1455 -24.1171 -138.4851 48.9422 -100.4260 0.0000 -0.0000 -59.9680 -6.3394 -44.8377 4.4791 7.1250 -0.0000 -0.0000 47.4409 -69.6078 -30.1899
